<svg width="16" height="16" viewBox="0 0 16 16" fill="none" xmlns="http://www.w3.org/2000/svg">
<path d="M8.5 8.5C8.5 8.63261 8.44732 8.75978 8.35355 8.85355C8.25979 8.94732 8.13261 9 8 9C7.86739 9 7.74022 8.94732 7.64645 8.85355C7.55268 8.75978 7.5 8.63261 7.5 8.5C7.5 8.36739 7.55268 8.24022 7.64645 8.14645C7.74022 8.05268 7.86739 8 8 8C8.13261 8 8.25979 8.05268 8.35355 8.14645C8.44732 8.24022 8.5 8.36739 8.5 8.5ZM5 10.5C5.13261 10.5 5.25978 10.4473 5.35355 10.3536C5.44732 10.2598 5.5 10.1326 5.5 10C5.5 9.86739 5.44732 9.74022 5.35355 9.64645C5.25978 9.55268 5.13261 9.5 5 9.5C4.86739 9.5 4.74021 9.55268 4.64645 9.64645C4.55268 9.74022 4.5 9.86739 4.5 10C4.5 10.1326 4.55268 10.2598 4.64645 10.3536C4.74021 10.4473 4.86739 10.5 5 10.5ZM5.5 11.5C5.5 11.6326 5.44732 11.7598 5.35355 11.8536C5.25978 11.9473 5.13261 12 5 12C4.86739 12 4.74021 11.9473 4.64645 11.8536C4.55268 11.7598 4.5 11.6326 4.5 11.5C4.5 11.3674 4.55268 11.2402 4.64645 11.1464C4.74021 11.0527 4.86739 11 5 11C5.13261 11 5.25978 11.0527 5.35355 11.1464C5.44732 11.2402 5.5 11.3674 5.5 11.5ZM6.5 10.5C6.63261 10.5 6.75978 10.4473 6.85355 10.3536C6.94732 10.2598 7 10.1326 7 10C7 9.86739 6.94732 9.74022 6.85355 9.64645C6.75978 9.55268 6.63261 9.5 6.5 9.5C6.36739 9.5 6.24022 9.55268 6.14645 9.64645C6.05268 9.74022 6 9.86739 6 10C6 10.1326 6.05268 10.2598 6.14645 10.3536C6.24022 10.4473 6.36739 10.5 6.5 10.5ZM7 11.5C7 11.6326 6.94732 11.7598 6.85355 11.8536C6.75978 11.9473 6.63261 12 6.5 12C6.36739 12 6.24022 11.9473 6.14645 11.8536C6.05268 11.7598 6 11.6326 6 11.5C6 11.3674 6.05268 11.2402 6.14645 11.1464C6.24022 11.0527 6.36739 11 6.5 11C6.63261 11 6.75978 11.0527 6.85355 11.1464C6.94732 11.2402 7 11.3674 7 11.5ZM8 10.5C8.13261 10.5 8.25979 10.4473 8.35355 10.3536C8.44732 10.2598 8.5 10.1326 8.5 10C8.5 9.86739 8.44732 9.74022 8.35355 9.64645C8.25979 9.55268 8.13261 9.5 8 9.5C7.86739 9.5 7.74022 9.55268 7.64645 9.64645C7.55268 9.74022 7.5 9.86739 7.5 10C7.5 10.1326 7.55268 10.2598 7.64645 10.3536C7.74022 10.4473 7.86739 10.5 8 10.5ZM8.5 11.5C8.5 11.6326 8.44732 11.7598 8.35355 11.8536C8.25979 11.9473 8.13261 12 8 12C7.86739 12 7.74022 11.9473 7.64645 11.8536C7.55268 11.7598 7.5 11.6326 7.5 11.5C7.5 11.3674 7.55268 11.2402 7.64645 11.1464C7.74022 11.0527 7.86739 11 8 11C8.13261 11 8.25979 11.0527 8.35355 11.1464C8.44732 11.2402 8.5 11.3674 8.5 11.5ZM9.5 10.5C9.63261 10.5 9.75979 10.4473 9.85355 10.3536C9.94732 10.2598 10 10.1326 10 10C10 9.86739 9.94732 9.74022 9.85355 9.64645C9.75979 9.55268 9.63261 9.5 9.5 9.5C9.36739 9.5 9.24022 9.55268 9.14645 9.64645C9.05268 9.74022 9 9.86739 9 10C9 10.1326 9.05268 10.2598 9.14645 10.3536C9.24022 10.4473 9.36739 10.5 9.5 10.5ZM10 11.5C10 11.6326 9.94732 11.7598 9.85355 11.8536C9.75979 11.9473 9.63261 12 9.5 12C9.36739 12 9.24022 11.9473 9.14645 11.8536C9.05268 11.7598 9 11.6326 9 11.5C9 11.3674 9.05268 11.2402 9.14645 11.1464C9.24022 11.0527 9.36739 11 9.5 11C9.63261 11 9.75979 11.0527 9.85355 11.1464C9.94732 11.2402 10 11.3674 10 11.5ZM11 10.5C11.1326 10.5 11.2598 10.4473 11.3536 10.3536C11.4473 10.2598 11.5 10.1326 11.5 10C11.5 9.86739 11.4473 9.74022 11.3536 9.64645C11.2598 9.55268 11.1326 9.5 11 9.5C10.8674 9.5 10.7402 9.55268 10.6464 9.64645C10.5527 9.74022 10.5 9.86739 10.5 10C10.5 10.1326 10.5527 10.2598 10.6464 10.3536C10.7402 10.4473 10.8674 10.5 11 10.5ZM10 8.5C10 8.63261 9.94732 8.75978 9.85355 8.85355C9.75979 8.94732 9.63261 9 9.5 9C9.36739 9 9.24022 8.94732 9.14645 8.85355C9.05268 8.75978 9 8.63261 9 8.5C9 8.36739 9.05268 8.24022 9.14645 8.14645C9.24022 8.05268 9.36739 8 9.5 8C9.63261 8 9.75979 8.05268 9.85355 8.14645C9.94732 8.24022 10 8.36739 10 8.5ZM11 9C11.1326 9 11.2598 8.94732 11.3536 8.85355C11.4473 8.75978 11.5 8.63261 11.5 8.5C11.5 8.36739 11.4473 8.24022 11.3536 8.14645C11.2598 8.05268 11.1326 8 11 8C10.8674 8 10.7402 8.05268 10.6464 8.14645C10.5527 8.24022 10.5 8.36739 10.5 8.5C10.5 8.63261 10.5527 8.75978 10.6464 8.85355C10.7402 8.94732 10.8674 9 11 9Z" fill="#313715"/>
<path fillRule="evenodd" clipRule="evenodd" d="M4.5 1.5C4.63261 1.5 4.75979 1.55268 4.85355 1.64645C4.94732 1.74021 5 1.86739 5 2V3H11V2C11 1.86739 11.0527 1.74021 11.1464 1.64645C11.2402 1.55268 11.3674 1.5 11.5 1.5C11.6326 1.5 11.7598 1.55268 11.8536 1.64645C11.9473 1.74021 12 1.86739 12 2V3H12.5C13.0304 3 13.5391 3.21071 13.9142 3.58579C14.2893 3.96086 14.5 4.46957 14.5 5V12.5C14.5 13.0304 14.2893 13.5391 13.9142 13.9142C13.5391 14.2893 13.0304 14.5 12.5 14.5H3.5C2.96957 14.5 2.46086 14.2893 2.08579 13.9142C1.71071 13.5391 1.5 13.0304 1.5 12.5V5C1.5 4.46957 1.71071 3.96086 2.08579 3.58579C2.46086 3.21071 2.96957 3 3.5 3H4V2C4 1.86739 4.05268 1.74021 4.14645 1.64645C4.24021 1.55268 4.36739 1.5 4.5 1.5ZM13.5 7.5C13.5 7.23478 13.3946 6.98043 13.2071 6.79289C13.0196 6.60536 12.7652 6.5 12.5 6.5H3.5C3.23478 6.5 2.98043 6.60536 2.79289 6.79289C2.60536 6.98043 2.5 7.23478 2.5 7.5V12.5C2.5 12.7652 2.60536 13.0196 2.79289 13.2071C2.98043 13.3946 3.23478 13.5 3.5 13.5H12.5C12.7652 13.5 13.0196 13.3946 13.2071 13.2071C13.3946 13.0196 13.5 12.7652 13.5 12.5V7.5Z" fill="#313715"/>
</svg>
