<svg width="12" height="12" viewBox="0 0 12 12" fill="none" xmlns="http://www.w3.org/2000/svg">
<path fillRule="evenodd" clipRule="evenodd" d="M4.12541 1.875H9.75041C9.84987 1.875 9.94525 1.91451 10.0156 1.98483C10.0859 2.05516 10.1254 2.15054 10.1254 2.25V7.875C10.1254 7.97446 10.0859 8.06984 10.0156 8.14017C9.94525 8.21049 9.84987 8.25 9.75041 8.25C9.65096 8.25 9.55557 8.21049 9.48525 8.14017C9.41492 8.06984 9.37541 7.97446 9.37541 7.875V3.155L2.51541 10.015C2.44432 10.0812 2.3503 10.1173 2.25315 10.1156C2.156 10.1139 2.06331 10.0745 1.9946 10.0058C1.92589 9.9371 1.88654 9.84441 1.88482 9.74726C1.88311 9.65011 1.91917 9.55609 1.98541 9.485L8.84541 2.625H4.12541C4.02596 2.625 3.93057 2.58549 3.86025 2.51517C3.78992 2.44484 3.75041 2.34946 3.75041 2.25C3.75041 2.15054 3.78992 2.05516 3.86025 1.98483C3.93057 1.91451 4.02596 1.875 4.12541 1.875Z" fill="#009600"/>
</svg>
