<svg width="229" height="40" viewBox="0 0 229 40" fill="none" xmlns="http://www.w3.org/2000/svg">
<g clip-path="url(#clip0_1871_4032)">
<path fillRule="evenodd" clipRule="evenodd" d="M20 0C31.0457 0 40 8.95436 40 20C40 31.0457 31.0456 40 20 40C8.95426 40 0 31.0457 0 20C0 8.95426 8.95426 0 20 0Z" fill="white"/>
<mask id="mask0_1871_4032" style="mask-type:luminance" maskUnits="userSpaceOnUse" x="0" y="0" width="40" height="40">
<path d="M20 0C31.0457 0 40 8.95436 40 20C40 31.0457 31.0456 40 20 40C8.95426 40 0 31.0457 0 20C0 8.95426 8.95426 0 20 0Z" fill="white"/>
</mask>
<g mask="url(#mask0_1871_4032)">
<mask id="mask1_1871_4032" style="mask-type:luminance" maskUnits="userSpaceOnUse" x="0" y="0" width="40" height="40">
<path d="M20 0C31.0457 0 40 8.95436 40 20C40 31.0457 31.0456 40 20 40C8.95426 40 0 31.0457 0 20C0 8.95426 8.95426 0 20 0Z" fill="white"/>
</mask>
<g mask="url(#mask1_1871_4032)">
<path fillRule="evenodd" clipRule="evenodd" d="M4.16407 13.8063C6.00249 11.9679 9.01068 11.9678 10.8491 13.8063L20.0006 22.9579L29.1522 13.8063C30.9906 11.9678 33.9988 11.9679 35.8372 13.8063C37.6756 15.6448 37.6756 18.653 35.8372 20.4914L24.335 31.9935C22.3867 33.9418 17.6144 33.9418 15.6661 31.9935L4.16397 20.4914C2.32555 18.653 2.32555 15.6448 4.16397 13.8063H4.16407Z" fill="#7D0003"/>
</g>
</g>
<path fillRule="evenodd" clipRule="evenodd" d="M20 0C31.0457 0 40 8.95436 40 20C40 31.0457 31.0456 40 20 40C8.95426 40 0 31.0457 0 20C0 8.95426 8.95426 0 20 0Z" stroke="white" stroke-width="0.639558" stroke-miterlimit="2.61313" stroke-linecap="round" stroke-linejoin="round"/>
<path fillRule="evenodd" clipRule="evenodd" d="M20.0017 10.2537C22.2284 10.2537 24.0335 12.0587 24.0335 14.2855C24.0335 16.5122 22.2284 18.3173 20.0017 18.3173C17.7749 18.3173 15.9697 16.5122 15.9697 14.2855C15.9697 12.0587 17.7748 10.2537 20.0017 10.2537Z" fill="#7D0003"/>
<path fillRule="evenodd" clipRule="evenodd" d="M201.704 21.3162H201.781V21.3935H201.704V21.3162ZM187.226 8.30959H187.071V31.2258H187.149V31.3031H193.033V19.5353H192.955V17.9871H192.878V17.4451H192.955V17.6H193.033V17.6774H193.11V17.8324H193.187V17.9871H193.265V18.0645H193.342V18.2192H193.419V18.3739H193.497V18.4513H193.574V18.606H193.652V18.761H193.729V18.8383H193.806V18.9933H193.884V19.148H193.961V19.2254H194.038V19.3801H194.116V19.5349H194.193V19.6898H194.271V19.7672H194.348V19.9222H194.425V20.0769H194.503V20.1543H194.58V20.309H194.657V20.464H194.735V20.5413H194.812V20.6963H194.889V20.851H194.967V20.9284H195.044V21.0831H195.122V21.2379H195.199V21.3152H195.276V21.47H195.354V21.6249H195.431V21.7023H195.508V21.8573H195.586V22.012H195.663V22.0894H195.74V22.2441H195.818V22.3988H195.895V22.4762H195.973V22.6309H196.05V22.7859H196.127V22.9406H196.205V23.018H196.282V23.1727H196.359V23.3274H196.437V23.4048H196.514V23.5595H196.592V23.7145H196.669V23.7919H196.746V23.9468H196.824V24.1016H196.901V24.1789H196.978V24.3337H197.056V24.4884H197.133V24.5658H197.21V24.7205H197.288V24.8755H197.365V24.9528H197.443V25.1078H197.52V25.2625H197.597V25.3399H197.675V25.4946H197.752V25.6494H197.829V25.7267H197.907V25.8815H197.984V26.0364H198.061V26.1912H198.139V26.2685H198.216V26.4232H198.294V26.578H198.371V26.6554H198.448V26.8101H198.526V26.965H198.603V27.0424H198.68V27.1974H198.758V27.3521H198.835V27.4295H198.912V27.5842H198.99V27.7389H199.067V27.8163H199.145V27.971H199.222V28.126H199.299V28.2034H199.377V28.3583H199.454V28.5131H199.531V28.5904H199.609V28.7452H199.686V28.8999H199.764V29.0549H199.841V29.1322H199.918V29.2872H199.996V29.4419H200.073V29.5193H200.15V29.674H200.228V29.8288H200.305V29.9061H200.382V30.0608H200.46V30.2158H200.537V30.2932H200.615V30.4482H200.692V30.6029H200.769V30.6802H200.847V30.835H200.924V30.9897H201.001V31.0671H201.079V31.2218H201.156V31.2992H207.659V31.2218H207.737V8.38301H207.659V8.30564H207.582V8.22827H201.698V8.30564H201.621V20.2284H201.698V21.2348H201.621V21.1575H201.543V21.0025H201.466V20.8478H201.388V20.7704H201.311V20.6157H201.234V20.4609H201.156V20.3836H201.079V20.2288H201.002V20.0739H200.924V19.9965H200.847V19.8416H200.77V19.6868H200.692V19.6095H200.615V19.4547H200.537V19.2998H200.46V19.2224H200.383V19.0674H200.305V18.9127H200.228V18.8353H200.151V18.6806H200.073V18.5259H199.996V18.4485H199.918V18.2938H199.841V18.1388H199.764V18.0614H199.686V17.9065H199.609V17.7517H199.532V17.597H199.454V17.5196H199.377V17.3649H199.3V17.2099H199.222V17.1326H199.145V16.9776H199.067V16.8229H198.99V16.7455H198.913V16.5908H198.835V16.436H198.758V16.3587H198.681V16.204H198.603V16.049H198.526V15.9716H198.449V15.8167H198.371V15.6619H198.294V15.5846H198.216V15.4298H198.139V15.2751H198.062V15.1977H197.984V15.043H197.907V14.888H197.83V14.8107H197.752V14.6557H197.675V14.501H197.598V14.4236H197.52V14.2689H197.443V14.1141H197.365V14.0368H197.288V13.882H197.211V13.7271H197.133V13.6497H197.056V13.4947H196.979V13.34H196.901V13.1853H196.824V13.1079H196.746V12.9532H196.669V12.7982H196.592V12.7209H196.514V12.5659H196.437V12.4112H196.36V12.3338H196.282V12.1791H196.205V12.0243H196.128V11.947H196.05V11.7922H195.973V11.6373H195.895V11.5599H195.818V11.4049H195.741V11.2502H195.663V11.1728H195.586V11.0181H195.509V10.8634H195.431V10.786H195.354V10.6313H195.277V10.4763H195.199V10.3989H195.122V10.244H195.044V10.0892H194.967V10.0119H194.89V9.85714H194.812V9.7024H194.735V9.62505H194.658V9.47031H194.58V9.31535H194.503V9.23798H194.425V9.08302H194.348V8.92828H194.271V8.77355H194.193V8.69619H194.116V8.54145H194.039V8.38649H193.961V8.30912H193.806V8.23175H187.226V8.30912L187.226 8.30959Z" fill="white"/>
<path fillRule="evenodd" clipRule="evenodd" d="M106.478 8.07737H105.859V8.15474H105.394V8.2321H105.007V8.3097H104.697V8.38707H104.388V8.46443H104.078V8.54203H103.846V8.61917H103.691V8.69677H103.459V8.77413H103.226V8.8515H103.072V8.9291H102.917V9.00646H102.762V9.08383H102.607V9.1612H102.452V9.23879H102.298V9.31616H102.143V9.39353H101.988V9.47089H101.91V9.54825H101.756V9.62586H101.678V9.70322H101.523V9.78059H101.446V9.85795H101.291V9.93555H101.213V10.0129H101.136V10.0903H100.981V10.1677H100.904V10.245H100.826V10.3226H100.749V10.4H100.672V10.4774H100.517V10.5547H100.439V10.6323H100.362V10.7097H100.284V10.787H100.207V10.8644H100.13V10.9418H100.052V11.0194H99.9749V11.0967H99.8973V11.2515H99.82V11.3291H99.7426V11.4064H99.6652V11.4838H99.5876V11.5612H99.5103V11.6385H99.4329V11.7935H99.3555V11.8709H99.2782V11.9482H99.2006V12.1032H99.1232V12.1806H99.0458V12.3353H98.9685V12.4129H98.8909V12.5676H98.8135V12.6452H98.7361V12.8H98.6585V12.9549H98.5814V13.1097H98.5038V13.2644H98.4265V13.342H98.3491V13.5741H98.2715V13.7291H98.1941V13.8838H98.1168V14.0387H98.0394V14.1935H97.9618V14.4258H97.8844V14.6579H97.8071V14.8129H97.7297V15.0452H97.6523V15.3547H97.5747V15.587H97.4974V15.8967H97.42V16.2064H97.3426V16.5161H97.265V16.9032H97.1877V17.3678H97.1103V17.987H97.0329V18.9161H96.9556V21.471H97.0329V22.4001H97.1103V23.0195H97.1877V23.5613H97.265V23.9483H97.3426V24.3354H97.42V24.6451H97.4974V24.9548H97.5747V25.2645H97.6523V25.4968H97.7297V25.7292H97.8071V25.9613H97.8844V26.1936H97.9618V26.3483H98.0394V26.5806H98.1168V26.7356H98.1941V26.8903H98.2715V27.0451H98.3491V27.2H98.4265V27.3548H98.5038V27.5097H98.5814V27.6645H98.6585V27.8194H98.7361V27.8968H98.8135V28.0515H98.8909V28.2065H98.9685V28.2839H99.0458V28.4386H99.1232V28.5162H99.2006V28.5936H99.2782V28.7483H99.3555V28.8259H99.4329V28.9033H99.5103V28.9806H99.5876V29.1354H99.6652V29.213H99.7426V29.2903H99.82V29.3677H99.8973V29.4453H99.9749V29.5227H100.052V29.6H100.13V29.6774H100.207V29.755H100.284V29.8324H100.362V29.9097H100.517V29.9871H100.594V30.0645H100.672V30.142H100.749V30.2194H100.904V30.2968H100.981V30.3742H101.059V30.4517H101.213V30.5291H101.291V30.6065H101.446V30.6838H101.601V30.7612H101.678V30.8388H101.833V30.9162H101.988V30.9935H102.143V31.0709H102.298V31.1485H102.452V31.2259H102.685V31.3032H102.839V31.3806H103.072V31.458H103.304V31.5356H103.536V31.6129H103.846V31.6903H104.155V31.7677H104.62V31.8453H105.162V31.9226H106.168V32H107.639V31.9226H109.11V31.8453H109.652V31.7677H110.039V31.6903H110.272V31.6129H110.504V31.5356H110.659V31.458H110.814V31.3806H110.968V31.3032H111.123V31.2259H111.201V31.1485H111.355V31.0709H111.433V30.9935H111.51V30.9162H111.588V30.8388H111.742V30.7612H111.82V30.6838H111.897V30.6065H111.975V30.5291H112.052V30.4517H112.13V30.3742H112.207V30.2968H112.285V30.2194H112.362V30.142H112.439V29.9871H112.517V29.9097H112.594V29.8324H112.672V29.755H112.749V29.6774H112.827V29.6H112.904V29.4453H112.981V29.3677H113.059V29.2903H113.136V29.213H113.214V29.1354H113.291V28.9806H113.368V28.9033H113.523V29.2903H113.601V29.6H113.678V29.9097H113.755V30.2194H113.833V30.5291H113.91V30.8388H113.988V31.2259H114.065V31.458H114.143V31.5356H117.549V31.458H117.626V30.8388H117.704V20.0775H117.781V18.6837H117.704V18.6064H107.252V22.7872H107.33V22.8645H111.433V23.5613H111.355V24.413H111.278V24.9548H111.201V25.2645H111.123V25.4968H111.046V25.6516H110.968V25.8065H110.891V25.9613H110.814V26.0389H110.736V26.1162H110.659V26.1936H110.581V26.271H110.504V26.3483H110.349V26.4259H110.194V26.5033H109.962V26.5806H109.652V26.658H109.11V26.7356H107.33V26.658H106.788V26.5806H106.555V26.5033H106.323V26.4259H106.091V26.3483H105.936V26.271H105.781V26.1936H105.704V26.1162H105.549V26.0389H105.472V25.9613H105.394V25.8839H105.317V25.8065H105.239V25.7292H105.162V25.6516H105.085V25.5742H105.007V25.4192H104.93V25.3419H104.852V25.1871H104.775V25.1098H104.697V24.9548H104.62V24.7225H104.543V24.5677H104.465V24.3354H104.388V24.1033H104.31V23.7936H104.233V23.4839H104.155V23.0969H104.078V22.5548H104.001V21.7031H103.923V17.5999H104.001V16.6711H104.078V16.129H104.155V15.742H104.233V15.3547H104.31V15.1226H104.388V14.8902H104.465V14.6579H104.543V14.5032H104.62V14.3484H104.697V14.1935H104.775V14.0387H104.852V13.9611H104.93V13.8838H105.007V13.7291H105.085V13.6517H105.162V13.5741H105.317V13.4967H105.394V13.4194H105.472V13.342H105.626V13.2644H105.781V13.187H105.936V13.1097H106.168V13.0323H106.555V12.9549H108.181V13.0323H108.801V13.1097H109.188V13.187H109.42V13.2644H109.652V13.342H109.807V13.4194H109.962V13.4967H110.117V13.5741H110.194V13.6517H110.272V13.7291H110.349V13.8064H110.427V13.8838H110.504V13.9611H110.581V14.1161H110.659V14.1935H110.736V14.4258H110.814V14.6579H110.891V15.1999H110.968V16.4387H113.755V16.3614H117.549V15.1226H117.472V14.5805H117.394V14.1935H117.317V13.8064H117.239V13.5741H117.162V13.342H117.084V13.1097H117.007V12.8773H116.93V12.7226H116.852V12.5676H116.775V12.4129H116.697V12.2582H116.62V12.1032H116.543V11.9482H116.465V11.7935H116.388V11.7161H116.31V11.5612H116.233V11.4838H116.156V11.3291H116.078V11.2515H116.001V11.1741H115.923V11.0967H115.846V10.9418H115.769V10.8644H115.691V10.787H115.614V10.7097H115.536V10.6323H115.459V10.5547H115.381V10.4774H115.304V10.4H115.227V10.3226H115.149V10.245H115.072V10.1677H114.917V10.0903H114.839V10.0129H114.762V9.93555H114.684V9.85795H114.53V9.78059H114.452V9.70322H114.297V9.62586H114.22V9.54825H114.065V9.47089H113.988V9.39353H113.833V9.31616H113.678V9.23879H113.523V9.1612H113.368V9.08383H113.214V9.00646H113.059V8.9291H112.827V8.8515H112.672V8.77413H112.439V8.69677H112.207V8.61917H111.975V8.54203H111.742V8.46443H111.433V8.38707H111.123V8.3097H110.736V8.2321H110.349V8.15474H109.807V8.07737H109.033V8H106.478V8.07737Z" fill="white"/>
<path fillRule="evenodd" clipRule="evenodd" d="M168.026 22.0905H168.103V21.8582H168.181V21.5485H168.258V21.3162H168.335V21.0838H168.413V20.8515H168.49V20.6192H168.568V20.3095H168.645V20.0771H168.722V19.8448H168.8V19.6125H168.877V19.3801H168.954V19.1478H169.032V18.8381H169.109V18.6058H169.186V18.3735H169.264V18.1411H169.341V17.9088H169.419V17.5991H169.496V17.3668H169.573V17.1344H169.651V16.9021H169.728V16.6698H169.805V16.3601H169.883V16.1277H169.96V15.8954H170.037V15.6631H170.115V15.4308H170.192V15.1984H170.27V14.9661H170.347V15.1984H170.424V15.5081H170.502V15.7405H170.579V15.9728H170.656V16.2051H170.734V16.5148H170.811V16.7471H170.889V16.9795H170.966V17.2118H171.043V17.5215H171.121V17.7538H171.198V17.9862H171.275V18.2185H171.353V18.4508H171.43V18.7605H171.507V18.9929H171.585V19.2252H171.662V19.4575H171.74V19.7672H171.817V19.9995H171.894V20.2319H171.972V20.4642H172.049V20.7739H172.126V21.0062H172.204V21.2386H172.281V21.4709H172.358V21.7032H172.436V22.0129H172.513V22.2452H172.591V22.3226H168.023V22.0903L168.026 22.0905ZM167.639 8.30982H167.484V8.54215H167.407V8.77448H167.329V9.00681H167.252V9.23914H167.175V9.47147H167.097V9.7038H167.02V9.93613H166.943V10.1685H166.865V10.4008H166.788V10.5555H166.711V10.7879H166.633V11.0202H166.556V11.2525H166.478V11.4849H166.401V11.7172H166.324V11.9495H166.246V12.1818H166.169V12.4142H166.092V12.6465H166.014V12.8788H165.937V13.1112H165.859V13.3435H165.782V13.5758H165.705V13.8082H165.627V13.9629H165.55V14.1952H165.473V14.4276H165.395V14.6599H165.318V14.8922H165.241V15.1245H165.163V15.3569H165.086V15.5892H165.008V15.8215H164.931V16.0539H164.854V16.2862H164.776V16.5185H164.699V16.7509H164.622V16.9832H164.544V17.2155H164.467V17.3705H164.39V17.6028H164.312V17.8352H164.235V18.0675H164.157V18.2998H164.08V18.5321H164.003V18.7645H163.925V18.9968H163.848V19.2291H163.771V19.4615H163.693V19.6938H163.616V19.9261H163.539V20.1585H163.461V20.3908H163.384V20.6231H163.306V20.7779H163.229V21.0102H163.152V21.2425H163.074V21.4748H162.997V21.7072H162.92V21.9395H162.842V22.1718H162.765V22.4042H162.687V22.6365H162.61V22.8688H162.533V23.1012H162.455V23.3335H162.378V23.5658H162.301V23.7982H162.223V24.0305H162.146V24.2628H162.069V24.4178H161.991V24.6501H161.914V24.8824H161.836V25.1148H161.759V25.3471H161.682V25.5794H161.604V25.8118H161.527V26.0441H161.45V26.2764H161.372V26.5088H161.295V26.7411H161.218V26.9734H161.14V27.2057H161.063V27.4381H160.985V27.6704H160.908V27.8251H160.831V28.0575H160.753V28.2898H160.676V28.5221H160.599V28.7545H160.521V28.9868H160.444V29.2191H160.366V29.4514H160.289V29.6838H160.212V29.9161H160.134V30.1484H160.057V30.3808H159.98V30.6131H159.902V30.8454H159.825V31.0778H159.748V31.3101H165.554V31.1554H165.631V30.923H165.709V30.6907H165.786V30.4584H165.863V30.226H165.941V29.9937H166.018V29.7614H166.096V29.5291H166.173V29.2967H166.25V29.1418H166.328V28.9094H166.405V28.6771H166.482V28.4448H166.56V28.2124H166.637V27.9801H166.714V27.7478H166.792V27.5154H166.869V27.2831H166.947V27.1284H167.024V26.896H167.101V26.8187H174.379V26.896H174.456V27.2057H174.534V27.5154H174.611V27.7478H174.688V28.0575H174.766V28.3672H174.843V28.6769H174.92V28.9866H174.998V29.2963H175.075V29.606H175.152V29.9156H175.23V30.148H175.307V30.4577H175.385V30.7674H175.462V31.0771H175.539V31.3094H182.275V31.0771H182.197V30.8447H182.12V30.6124H182.043V30.4577H181.965V30.2253H181.888V29.993H181.811V29.7607H181.733V29.5283H181.656V29.296H181.579V29.1411H181.501V28.9087H181.424V28.6764H181.346V28.4441H181.269V28.2117H181.192V28.057H181.114V27.8247H181.037V27.5923H180.96V27.36H180.882V27.1277H180.805V26.9729H180.727V26.7406H180.65V26.5083H180.573V26.276H180.495V26.0436H180.418V25.8887H180.341V25.6563H180.263V25.424H180.186V25.1917H180.109V24.9593H180.031V24.8046H179.954V24.5723H179.876V24.3399H179.799V24.1076H179.722V23.8753H179.644V23.7205H179.567V23.4882H179.49V23.2559H179.412V23.0236H179.335V22.7912H179.258V22.6363H179.18V22.4039H179.103V22.1716H179.025V21.9393H178.948V21.7069H178.871V21.5522H178.793V21.3199H178.716V21.0875H178.639V20.8552H178.561V20.6229H178.484V20.3905H178.407V20.2358H178.329V20.0035H178.252V19.7712H178.174V19.5388H178.097V19.3065H178.02V19.1518H177.942V18.9194H177.865V18.6871H177.788V18.4548H177.71V18.2224H177.633V18.0677H177.555V17.8354H177.478V17.603H177.401V17.3707H177.323V17.1384H177.246V16.9834H177.169V16.7511H177.091V16.5188H177.014V16.2864H176.937V16.0541H176.859V15.8994H176.782V15.667H176.704V15.4347H176.627V15.2024H176.55V14.97H176.472V14.8153H176.395V14.583H176.318V14.3507H176.24V14.1183H176.163V13.886H176.086V13.731H176.008V13.4987H175.931V13.2664H175.853V13.034H175.776V12.8017H175.699V12.647H175.621V12.4146H175.544V12.1823H175.467V11.95H175.389V11.7176H175.312V11.4853H175.234V11.3306H175.157V11.0983H175.08V10.8659H175.002V10.6336H174.925V10.4013H174.848V10.2463H174.77V10.014H174.693V9.78164H174.616V9.54931H174.538V9.31697H174.461V9.16224H174.383V8.92991H174.306V8.69758H174.229V8.46525H174.151V8.31052H173.997V8.23315H167.648V8.31052L167.639 8.30982Z" fill="white"/>
<path fillRule="evenodd" clipRule="evenodd" d="M56.0774 8.30977H56V8.5421H56.0774V8.77421H56.1547V9.00654H56.2323V9.23887H56.3097V9.47096H56.3871V9.70329H56.4644V9.93562H56.542V10.1677H56.6194V10.4001H56.6968V10.6324H56.7741V10.8645H56.8515V11.0968H56.9291V11.3291H57.0065V11.6386H57.0838V11.8709H57.1612V12.1033H57.2388V12.3354H57.3162V12.5677H57.3935V12.8H57.4709V13.0324H57.5483V13.2645H57.6259V13.4968H57.7032V13.7291H57.7806V13.9612H57.8582V14.1935H57.9355V14.4259H58.0129V14.658H58.0903V14.8903H58.1679V15.1226H58.2452V15.3547H58.3226V15.5871H58.4V15.8194H58.4773V16.0517H58.5549V16.2838H58.6323V16.5162H58.7097V16.7485H58.787V16.9806H58.8646V17.2129H58.942V17.4452H59.0194V17.6774H59.0967V17.9097H59.1741V18.142H59.2517V18.3741H59.3291V18.6064H59.4064V18.8388H59.4838V19.0709H59.5614V19.3032H59.6388V19.5355H59.7161V19.7679H59.7935V20.0002H59.8709V20.2323H59.9485V20.4646H60.0258V20.6969H60.1032V20.9291H60.1806V21.1614H60.2582V21.3937H60.3355V21.6258H60.4129V21.8581H60.4903V22.0905H60.5676V22.3228H60.6452V22.5549H60.7226V22.7872H60.8V23.0196H60.8773V23.2517H60.9549V23.484H61.0323V23.7163H61.1096V23.9484H61.1872V24.1808H61.2644V24.4131H61.342V24.6452H61.4193V24.8775H61.4967V25.1098H61.5743V25.3419H61.6517V25.5743H61.729V25.8066H61.8064V26.0389H61.884V26.271H61.9614V26.5034H62.0387V26.7357H62.1161V26.9678H62.1935V27.2001H62.2711V27.4325H62.3484V27.6646H62.4258V27.8969H62.5032V28.1292H62.5808V28.3613H62.6581V28.5936H62.7355V28.826H62.8129V29.0583H62.8902V29.2904H62.9678V29.5227H63.0452V29.7551H63.1226V29.9872H63.1999V30.2195H63.2775V30.4518H63.3549V30.6839H63.4323V30.9163H63.5096V31.1486H63.587V31.3033H70.1678V31.226H70.2451V30.9936H70.3225V30.7613H70.4001V30.5292H70.4775V30.2969H70.5548V30.0645H70.6322V29.8324H70.7098V29.6001H70.7872V29.3678H70.8645V29.1354H70.9419V28.826H71.0193V28.5936H71.0968V28.3613H71.1742V28.1292H71.2516V27.8969H71.3289V27.6646H71.4065V27.4325H71.4839V27.2001H71.5613V26.9678H71.6389V26.7357H71.7162V26.5034H71.7936V26.271H71.871V26.0389H71.9483V25.8066H72.0259V25.5743H72.1033V25.3419H72.1807V25.1098H72.258V24.8775H72.3356V24.6452H72.413V24.4131H72.4904V24.1808H72.5677V23.9484H72.6451V23.7163H72.7227V23.484H72.8001V23.2517H72.8774V22.942H72.9548V22.7099H73.0324V22.4775H73.1098V22.2452H73.1871V22.0129H73.2645V21.7808H73.3419V21.5484H73.4195V21.3161H73.4968V21.084H73.5742V20.8517H73.6516V20.6194H73.7292V20.3873H73.8065V20.1549H73.8839V19.9226H73.9613V19.6905H74.0386V19.4582H74.1162V19.2258H74.1936V18.9937H74.271V18.7614H74.3483V18.5291H74.4259V18.2967H74.5033V18.0646H74.5806V17.8323H74.6582V17.6H74.7354V17.2903H74.813V17.0582H74.8903V16.8259H74.9677V16.5935H75.0453V16.3614H75.1227V16.1291H75.2V15.8968H75.2774V15.6647H75.355V15.4323H75.4324V15.2H75.5097V14.9677H75.5871V14.7356H75.6645V14.5032H75.7421V14.2709H75.8194V14.0388H75.8968V13.8065H75.9742V13.5742H76.0518V13.3421H76.1291V13.1097H76.2065V12.8774H76.2839V12.6453H76.3612V12.413H76.4388V12.1806H76.5162V11.9483H76.5936V11.7162H76.6709V11.4065H76.7485V11.1742H76.8259V10.9418H76.9033V10.7098H76.9806V10.4774H77.058V10.2451H77.1356V10.013H77.213V9.78066H77.2903V9.54833H77.3677V9.31624H77.4453V9.08391H77.5227V8.85158H77.6V8.61924H77.6774V8.30977H77.6V8.23218H72.1033V8.30977H72.0259V8.46451H71.9483V8.77421H71.871V9.00654H71.7936V9.31624H71.7162V9.54833H71.6389V9.85803H71.5613V10.1677H71.4839V10.4001H71.4065V10.7098H71.3289V11.0195H71.2516V11.2515H71.1742V11.5612H71.0968V11.7936H71.0193V12.1033H70.9419V12.413H70.8645V12.6453H70.7872V12.955H70.7098V13.2645H70.6322V13.4968H70.5548V13.8065H70.4775V14.0388H70.4001V14.3485H70.3225V14.658H70.2451V14.8903H70.1678V15.2H70.0904V15.5097H70.013V15.742H69.9354V16.0517H69.8581V16.2838H69.7807V16.5935H69.7033V16.9032H69.6257V17.1356H69.5484V17.4452H69.471V17.6774H69.3936V17.9871H69.3163V18.2967H69.2387V18.5291H69.1613V18.8388H69.0839V19.1485H69.0066V19.3808H68.929V19.6905H68.8516V19.9226H68.7742V20.2323H68.6969V20.542H68.6195V20.7743H68.5419V21.084H68.4645V21.3937H68.3872V21.6258H68.3098V21.9355H68.2322V22.1678H68.1548V22.4775H68.0775V22.7872H67.9999V23.0196H67.9227V23.329H67.8451V23.6387H67.7678V23.8711H67.6904V24.1808H67.6128V24.3355H67.5355V24.1034H67.4581V23.8711H67.3807V23.6387H67.3031V23.4066H67.2258V23.1743H67.1484V22.942H67.071V22.6323H66.9937V22.4002H66.9161V22.1678H66.8387V21.9355H66.7613V21.7032H66.684V21.4711H66.6064V21.2388H66.529V21.0064H66.4516V20.6969H66.3743V20.4646H66.2969V20.2323H66.2193V20.0002H66.1419V19.7679H66.0646V19.5355H65.9872V19.3032H65.9096V19.0709H65.8322V18.8388H65.7549V18.5291H65.6775V18.2967H65.6001V18.0646H65.5225V17.8323H65.4452V17.6H65.3678V17.3679H65.2904V17.1356H65.2128V16.9032H65.1355V16.5935H65.0581V16.3614H64.9807V16.1291H64.9034V15.8968H64.8258V15.6647H64.7484V15.4323H64.671V15.2H64.5937V14.9677H64.5161V14.658H64.4387V14.4259H64.3614V14.1935H64.2838V13.9612H64.2064V13.7291H64.129V13.4968H64.0517V13.2645H63.9743V13.0324H63.8967V12.7227H63.8193V12.4903H63.742V12.2582H63.6646V12.0259H63.587V11.7936H63.5096V11.5612H63.4323V11.3291H63.3549V11.0968H63.2775V10.8645H63.1999V10.5548H63.1226V10.3227H63.0452V10.0904H62.9678V9.85803H62.8902V9.62594H62.8129V9.3936H62.7355V9.16127H62.6581V8.92917H62.5808V8.61924H62.5032V8.38714H62.4258V8.30977H62.3484V8.23218H56.0774V8.30977Z" fill="white"/>
<path fillRule="evenodd" clipRule="evenodd" d="M212.542 8.30977H212.464V13.8065H217.187V31.226H217.264V31.3033H224.155V13.8065H228.723V8.30977H228.645V8.23218H212.542V8.30977Z" fill="white"/>
<path fillRule="evenodd" clipRule="evenodd" d="M140.078 8.30977H140V31.458H140.078V31.5356H155.407V31.458H155.484V25.8066H155.407V25.7292H146.348V8.30977H146.271V8.23218H140.078V8.30977Z" fill="white"/>
<path fillRule="evenodd" clipRule="evenodd" d="M125.522 8.30977H125.368V31.3033H132.335V8.30977H132.181V8.23218H125.522V8.30977Z" fill="white"/>
<path fillRule="evenodd" clipRule="evenodd" d="M83.6384 8.30977H83.561V31.3033H89.8319V8.30977H89.7545V8.23218H83.6384V8.30977Z" fill="white"/>
</g>
<defs>
<clipPath id="clip0_1871_4032">
<rect width="228.723" height="40" fill="white"/>
</clipPath>
</defs>
</svg>
